<?xml version="1.0" encoding="utf-8"?>
<!-- Generator: Adobe Illustrator 25.0.1, SVG Export Plug-In . SVG Version: 6.00 Build 0)  -->
<svg version="1.1" id="Camada_1" xmlns="http://www.w3.org/2000/svg" xmlns:xlink="http://www.w3.org/1999/xlink" x="0px" y="0px"
	 viewBox="0 0 841.89 595.28" style="enable-background:new 0 0 841.89 595.28;" xml:space="preserve">
<style type="text/css">
	.st0{fill:#FFFFFF;}
	.st1{font-family:'Montserrat-Medium';}
	.st2{font-size:22.2774px;}
</style>
<g>
	<g>
		<polygon class="st0" points="375.43,348.37 267.9,348.37 267.9,385.67 309.68,385.67 309.68,491.04 357.78,491.04 357.78,385.67 
			391.2,385.67 391.21,385.68 391.21,348.37 		"/>
		<polygon class="st0" points="446.99,431.73 412.95,348.37 385.32,348.37 376.96,348.37 376.96,385.68 421.51,491.04 468.8,491.04 
			529.13,348.37 481.84,348.37 		"/>
	</g>
	<path class="st0" d="M525.89,348.37h48.1v142.67h-48.1V348.37z"/>
</g>
<text transform="matrix(1 0 0 1 267.9015 525.0917)" class="st0 st1 st2">Temporal Visual Inspection</text>
<g>
	<polygon class="st0" points="272.54,217.91 247.28,233.06 420.94,337.26 594.61,233.06 569.35,217.91 420.94,306.95 	"/>
	<polygon class="st0" points="566.08,185.64 420.94,272.72 275.81,185.64 247.28,202.75 272.54,217.91 420.94,306.95 569.35,217.91 
		594.61,202.75 	"/>
	<path class="st0" d="M425.24,131.47v9.36h-8.59v-9.36c-17.14,1.98-30.78,15.61-32.76,32.76h9.36v8.59h-9.36
		c1.98,17.14,15.61,30.78,32.76,32.76v-9.36h8.59v9.36c17.14-1.98,30.78-15.61,32.76-32.76h-9.36v-8.59H458
		C456.02,147.08,442.38,133.45,425.24,131.47z M420.94,175.83c-4.04,0-7.31-3.27-7.31-7.31s3.27-7.31,7.31-7.31
		c4.04,0,7.31,3.27,7.31,7.31S424.98,175.83,420.94,175.83z"/>
	<path class="st0" d="M420.94,272.72l145.14-87.08l28.52-17.11L420.94,64.32l-173.66,104.2l28.52,17.11L420.94,272.72z
		 M463.77,164.23h9.83v8.59h-9.83c-2.02,20.31-18.22,36.51-38.53,38.53v9.83h-8.59v-9.83c-20.31-2.02-36.51-18.22-38.53-38.53h-9.83
		v-8.59h9.83c2.02-20.31,18.22-36.51,38.53-38.53v-9.83h8.59v9.83C445.55,127.71,461.75,143.91,463.77,164.23z"/>
</g>
</svg>
