<?xml version="1.0" encoding="utf-8"?>
<!-- Generator: Adobe Illustrator 25.0.1, SVG Export Plug-In . SVG Version: 6.00 Build 0)  -->
<svg version="1.1" id="Camada_1" xmlns="http://www.w3.org/2000/svg" xmlns:xlink="http://www.w3.org/1999/xlink" x="0px" y="0px"
	 viewBox="0 0 841.89 595.28" style="enable-background:new 0 0 841.89 595.28;" xml:space="preserve">
<style type="text/css">
	.st0{fill:#FFFFFF;}
	.st1{font-family:'Montserrat-Medium';}
	.st2{font-size:27.4482px;}
</style>
<g>
	<g>
		<g>
			<g>
				<polygon class="st0" points="550.79,222.53 443.26,222.53 443.26,259.83 485.04,259.83 485.04,365.21 533.14,365.21 
					533.14,259.83 566.56,259.83 566.57,259.84 566.57,222.53 				"/>
				<polygon class="st0" points="622.35,305.89 588.31,222.53 560.68,222.53 552.32,222.53 552.32,259.84 596.87,365.21 
					644.16,365.21 704.49,222.53 657.2,222.53 				"/>
			</g>
			<path class="st0" d="M701.25,222.53h48.1v142.67h-48.1V222.53z"/>
		</g>
		<text transform="matrix(1 0 0 1 372.2129 404.1704)" class="st0 st1 st2">Temporal Visual Inspection</text>
	</g>
</g>
<g>
	<polygon class="st0" points="117.82,314.86 92.54,330.03 266.33,434.3 440.12,330.03 414.84,314.86 266.33,403.97 	"/>
	<polygon class="st0" points="411.57,282.57 266.33,369.71 121.09,282.57 92.54,299.7 117.82,314.86 266.33,403.97 414.84,314.86 
		440.12,299.7 	"/>
	<path class="st0" d="M270.63,228.37v9.37h-8.6v-9.37c-17.16,1.98-30.8,15.62-32.78,32.78h9.37v8.6h-9.37
		c1.98,17.16,15.62,30.8,32.78,32.78v-9.37h8.6v9.37c17.16-1.98,30.8-15.62,32.78-32.78h-9.37v-8.6h9.37
		C301.43,243.99,287.78,230.34,270.63,228.37z M266.33,272.76c-4.04,0-7.32-3.28-7.32-7.32c0-4.04,3.28-7.32,7.32-7.32
		c4.04,0,7.32,3.28,7.32,7.32C273.65,269.48,270.37,272.76,266.33,272.76z"/>
	<path class="st0" d="M266.33,369.71l145.24-87.15l28.54-17.13L266.33,161.17L92.54,265.44l28.54,17.13L266.33,369.71z
		 M309.19,261.14h9.84v8.6h-9.84c-2.02,20.33-18.24,36.54-38.56,38.56v9.84h-8.6v-9.84c-20.33-2.02-36.54-18.24-38.56-38.56h-9.84
		v-8.6h9.84c2.02-20.33,18.24-36.54,38.56-38.56v-9.84h8.6v9.84C290.95,224.61,307.17,240.82,309.19,261.14z"/>
</g>
</svg>
