<?xml version="1.0" encoding="utf-8"?>
<!-- Generator: Adobe Illustrator 25.0.1, SVG Export Plug-In . SVG Version: 6.00 Build 0)  -->
<svg version="1.1" id="Camada_1" xmlns="http://www.w3.org/2000/svg" xmlns:xlink="http://www.w3.org/1999/xlink" x="0px" y="0px"
	 viewBox="0 0 841.89 595.28" style="enable-background:new 0 0 841.89 595.28;" xml:space="preserve">
<style type="text/css">
	.st0{font-family:'Montserrat-Medium';}
	.st1{font-size:27.4482px;}
	.st2{fill:none;}
</style>
<g>
	<g>
		<polygon points="550.79,222.53 443.26,222.53 443.26,259.83 485.04,259.83 485.04,365.21 533.14,365.21 533.14,259.83 
			566.56,259.83 566.57,259.84 566.57,222.53 		"/>
		<polygon points="622.35,305.89 588.31,222.53 560.68,222.53 552.32,222.53 552.32,259.84 596.87,365.21 644.16,365.21 
			704.49,222.53 657.2,222.53 		"/>
	</g>
	<path d="M701.25,222.53h48.1v142.67h-48.1V222.53z"/>
</g>
<text transform="matrix(1 0 0 1 372.2129 404.1704)" class="st0 st1">Temporal Visual Inspection</text>
<g>
	<path class="st2" d="M270.5,222.54v-9.83h-8.59v9.83c-20.31,2.02-36.51,18.22-38.53,38.53h-9.83v8.59h9.83
		c2.02,20.31,18.22,36.51,38.53,38.53v9.83h8.59v-9.83c20.31-2.02,36.51-18.22,38.53-38.53h9.83v-8.59h-9.83
		C307.01,240.76,290.81,224.56,270.5,222.54z M303.25,269.66c-1.98,17.14-15.61,30.78-32.76,32.76v-9.36h-8.59v9.36
		c-17.14-1.98-30.78-15.61-32.76-32.76h9.36v-8.59h-9.36c1.98-17.14,15.61-30.78,32.76-32.76v9.36h8.59v-9.36
		c17.14,1.98,30.78,15.61,32.76,32.76h-9.36v8.59H303.25z"/>
	<path d="M303.25,261.07c-1.98-17.14-15.61-30.78-32.76-32.76v9.36h-8.59v-9.36c-17.14,1.98-30.78,15.61-32.76,32.76h9.36v8.59
		h-9.36c1.98,17.14,15.61,30.78,32.76,32.76v-9.36h8.59v9.36c17.14-1.98,30.78-15.61,32.76-32.76h-9.36v-8.59H303.25z M266.2,272.68
		c-4.04,0-7.31-3.27-7.31-7.31s3.27-7.31,7.31-7.31s7.31,3.27,7.31,7.31S270.24,272.68,266.2,272.68z"/>
	<path d="M411.34,282.48l28.52-17.11L266.2,161.17L92.54,265.37l28.52,17.11L92.54,299.6l25.26,15.16l-25.26,15.16L266.2,434.1
		l173.66-104.2l-25.26-15.16l25.26-15.16L411.34,282.48z M318.87,269.66h-9.83c-2.02,20.31-18.22,36.51-38.53,38.53v9.83h-8.59
		v-9.83c-20.31-2.02-36.51-18.22-38.53-38.53h-9.83v-8.59h9.83c2.02-20.31,18.22-36.51,38.53-38.53v-9.83h8.59v9.83
		c20.31,2.02,36.51,18.22,38.53,38.53h9.83V269.66z"/>
</g>
</svg>
