<?xml version="1.0" encoding="utf-8"?>
<!-- Generator: Adobe Illustrator 25.0.1, SVG Export Plug-In . SVG Version: 6.00 Build 0)  -->
<svg version="1.1" id="Camada_1" xmlns="http://www.w3.org/2000/svg" xmlns:xlink="http://www.w3.org/1999/xlink" x="0px" y="0px"
	 viewBox="0 0 841.89 595.28" style="enable-background:new 0 0 841.89 595.28;" xml:space="preserve">
<style type="text/css">
	.st0{font-family:'Montserrat-Medium';}
	.st1{font-size:22.2774px;}
	.st2{fill:none;}
</style>
<g>
	<g>
		<g>
			<polygon points="375.43,348.37 267.9,348.37 267.9,385.67 309.68,385.67 309.68,491.04 357.78,491.04 357.78,385.67 
				391.2,385.67 391.21,385.68 391.21,348.37 			"/>
			<polygon points="446.99,431.73 412.95,348.37 385.32,348.37 376.96,348.37 376.96,385.68 421.51,491.04 468.8,491.04 
				529.13,348.37 481.84,348.37 			"/>
		</g>
		<path d="M525.89,348.37h48.1v142.67h-48.1V348.37z"/>
	</g>
	<text transform="matrix(1 0 0 1 267.9015 525.0917)" class="st0 st1">Temporal Visual Inspection</text>
</g>
<g>
	<path class="st2" d="M425.26,126.3v-9.83h-8.59v9.83c-20.31,2.02-36.52,18.22-38.54,38.54h-9.83v8.59h9.83
		c2.02,20.31,18.22,36.52,38.54,38.54v9.83h8.59v-9.83c20.31-2.02,36.52-18.22,38.54-38.54h9.83v-8.59h-9.83
		C461.77,144.52,445.57,128.32,425.26,126.3z M458.02,173.43c-1.98,17.14-15.61,30.78-32.76,32.76v-9.36h-8.59v9.36
		c-17.14-1.98-30.78-15.61-32.76-32.76h9.36v-8.59h-9.36c1.98-17.14,15.61-30.78,32.76-32.76v9.36h8.59v-9.36
		c17.14,1.98,30.78,15.61,32.76,32.76h-9.36v8.59H458.02z"/>
	<path d="M458.02,164.84c-1.98-17.15-15.61-30.78-32.76-32.76v9.36h-8.59v-9.36c-17.14,1.98-30.78,15.61-32.76,32.76h9.36v8.59
		h-9.36c1.98,17.14,15.61,30.78,32.76,32.76v-9.36h8.59v9.36c17.14-1.98,30.78-15.61,32.76-32.76h-9.36v-8.59H458.02z
		 M420.96,176.45c-4.04,0-7.31-3.27-7.31-7.31c0-4.04,3.27-7.31,7.31-7.31c4.04,0,7.31,3.27,7.31,7.31
		C428.28,173.17,425,176.45,420.96,176.45z"/>
	<path d="M566.11,186.25l28.53-17.12L420.96,64.93L247.28,169.13l28.53,17.12l-28.53,17.12l25.26,15.16l-25.26,15.16l173.68,104.21
		l173.68-104.21l-25.26-15.16l25.26-15.16L566.11,186.25z M473.63,173.43h-9.83c-2.02,20.31-18.22,36.52-38.54,38.54v9.83h-8.59
		v-9.83c-20.31-2.02-36.52-18.22-38.54-38.54h-9.83v-8.59h9.83c2.02-20.31,18.22-36.52,38.54-38.54v-9.83h8.59v9.83
		c20.31,2.02,36.52,18.22,38.54,38.54h9.83V173.43z"/>
</g>
</svg>
